<?xml version="1.0" encoding="utf-8"?>
<!-- Generator: Adobe Illustrator 25.4.1, SVG Export Plug-In . SVG Version: 6.00 Build 0)  -->
<svg version="1.1" id="Слой_1" xmlns="http://www.w3.org/2000/svg" xmlns:xlink="http://www.w3.org/1999/xlink" x="0px" y="0px"
	 viewBox="0 0 2304.12 948.8" style="enable-background:new 0 0 2304.12 948.8;" xml:space="preserve">
<style type="text/css">
	.st0{fill:#FFFFFF;}
	.st1{fill:#2B2B2B;}
	.st2{fill:#333333;}
	.st3{fill:url(#SVGID_1_);}
	.st4{fill:url(#SVGID_00000134242744672945735810000009712929117692539533_);}
	.st5{fill:url(#SVGID_00000091727910019915165680000005628527532533840546_);}
	.st6{fill:url(#SVGID_00000029746547271160432280000009999867861490612915_);}
	.st7{fill:url(#SVGID_00000080189345310124126830000015880481106973454517_);}
	.st8{fill:url(#SVGID_00000078008740251486624180000002623433981375159960_);}
	.st9{fill:url(#SVGID_00000154398890560403382030000006456309733918086286_);}
	.st10{fill:url(#SVGID_00000136398584606955367340000016568301876651134648_);}
	.st11{fill:url(#SVGID_00000177466892518967468530000002129378892073042600_);}
	.st12{fill:url(#SVGID_00000044147018790093483950000017286961607394106767_);}
	.st13{fill:url(#SVGID_00000026133707884924851970000007614675120657230493_);}
	.st14{fill:url(#SVGID_00000168832492055102369920000007404565325886756751_);}
	.st15{fill:url(#SVGID_00000046301845616289715530000009740844625198043560_);}
	.st16{fill:url(#SVGID_00000078032369174718543790000012620689253279562634_);}
	.st17{fill:url(#SVGID_00000133524039987580823850000008089858689570953352_);}
	.st18{fill:url(#SVGID_00000177458292967398381690000017653131232492294035_);}
	.st19{fill:url(#SVGID_00000080208117015529584280000001976954780687707282_);}
	.st20{fill:url(#SVGID_00000131334205931436649300000015973419425960902076_);}
	.st21{fill:url(#SVGID_00000183223560415389424400000013692925590200561303_);}
	.st22{fill:url(#SVGID_00000121275876894820566170000016876598366499698846_);}
	.st23{fill:url(#SVGID_00000160893227398037331120000009235768525294461111_);}
	.st24{fill:url(#SVGID_00000034774900540999559760000010374441003025636520_);}
</style>
<g>
	<g>
		<path class="st2" d="M559.95,478.84l1.17,1.17v60.73h88.76v-60.73l1.17-1.17h21.02l1.17,1.17v161.17l-1.17,1.17h-21.02l-1.17-1.17
			V564.1h-88.76v77.08l-1.17,1.17h-21.02l-1.17-1.17V480.01l1.17-1.17H559.95z"/>
		<path class="st2" d="M808.71,630.67c-10.51,7.01-26.86,15.18-44.38,15.18c-33.87,0-60.73-26.86-60.73-59.33
			c0-31.77,22.19-57.46,56.06-57.46c29.2,0,49.05,25.69,49.05,57.23c0,1.17,0,3.27-1.17,5.84l-2.34,1.17h-77.78
			c3.04,17.52,17.05,30.37,36.9,30.37c15.18,0,31.53-7.01,43.21-18.69l1.17,1.17V630.67z M785.35,574.61
			c-1.17-12.85-12.85-23.36-25.69-23.36c-16.35,0-28.03,10.51-31.3,23.36H785.35z"/>
		<path class="st2" d="M858.93,532.57l1.17,1.17v3.5c8.17-4.67,18.68-8.17,29.2-8.17c7.01,0,14.02,1.17,21.02,4.67l1.17,23.36
			l-1.17,1.17c-7.01-5.84-15.18-7.01-21.02-7.01c-11.68,0-23.36,4.67-29.2,11.68v78.25l-1.17,1.17H837.9l-1.17-1.17V533.73
			l1.17-1.17H858.93z"/>
		<path class="st2" d="M957.03,532.57l1.17,1.17v3.5c8.18-4.67,16.35-8.17,26.86-8.17c18.69,0,31.53,5.84,39.71,15.18
			c10.51-9.34,24.53-15.18,37.37-15.18c35.04,0,50.22,19.85,50.22,51.39v60.73l-1.17,1.17h-21.02l-1.17-1.17v-59.56
			c0-18.69-7.01-30.37-26.86-30.37c-10.51,0-19.86,4.67-26.86,11.68v78.25l-1.17,1.17h-21.02l-1.17-1.17v-59.56
			c0-18.69-7.01-30.37-26.86-30.37c-10.51,0-19.85,4.67-26.86,11.68v78.25l-1.17,1.17h-21.02l-1.17-1.17V533.73l1.17-1.17H957.03z"
			/>
		<path class="st2" d="M1245.5,630.67c-10.51,7.01-26.86,15.18-44.38,15.18c-33.87,0-60.73-26.86-60.73-59.33
			c0-31.77,22.19-57.46,56.06-57.46c29.2,0,49.05,25.69,49.05,57.23c0,1.17,0,3.27-1.17,5.84l-2.34,1.17h-77.78
			c3.04,17.52,17.05,30.37,36.91,30.37c15.18,0,31.53-7.01,43.21-18.69l1.17,1.17V630.67z M1222.14,574.61
			c-1.17-12.85-12.85-23.36-25.7-23.36c-16.35,0-28.03,10.51-31.3,23.36H1222.14z"/>
		<path class="st2" d="M1342.43,562.93c-11.68-8.18-23.36-11.68-35.04-11.68c-10.51,0-16.35,4.67-16.35,10.51
			c0,19.85,64.23,3.5,64.23,49.05c0,19.85-17.52,35.04-45.55,35.04c-14.02,0-31.53-3.5-42.05-10.51v-23.36l1.17-1.17
			c12.85,8.17,28.03,12.85,40.88,12.85c16.35,0,21.02-4.67,21.02-12.85c0-22.19-64.23-5.84-64.23-49.05
			c0-18.69,16.35-32.7,40.88-32.7c14.01,0,26.86,3.5,36.2,9.34v23.36L1342.43,562.93z"/>
		<path class="st2" d="M1405.49,478.84l1.17,1.17v60.73h88.76v-60.73l1.17-1.17h21.02l1.17,1.17v161.17l-1.17,1.17h-21.02
			l-1.17-1.17V564.1h-88.76v77.08l-1.17,1.17h-21.02l-1.17-1.17V480.01l1.17-1.17H1405.49z"/>
		<path class="st2" d="M1665.92,587.46c0,32.7-25.69,58.4-58.4,58.4c-32.7,0-58.39-25.69-58.39-58.4s25.69-58.4,58.39-58.4
			C1640.23,529.06,1665.92,554.76,1665.92,587.46z M1573.66,587.46c0,21.02,14.02,36.21,33.87,36.21
			c19.86,0,33.87-15.18,33.87-36.21c0-21.02-14.02-36.21-33.87-36.21C1587.68,551.25,1573.66,566.44,1573.66,587.46z"/>
		<path class="st2" d="M1700.96,532.57v-7.01c0-30.36,16.35-50.22,44.85-50.22c7.71,0,13.55,1.17,20.56,4.67v23.36l-1.17,1.17
			c-7.01-5.84-12.85-7.01-19.39-7.01c-13.31,0-21.49,9.34-21.49,29.2v5.84h40.88l1.17,1.17v21.02l-1.17,1.17h-40.88v85.26
			l-1.17,1.17h-21.02l-1.17-1.17v-85.26h-17.52l-1.17-1.17V533.5l1.17-0.93H1700.96z"/>
	</g>
	<g>
		<radialGradient id="SVGID_1_" cx="1171.6495" cy="173.3708" r="3114.3997" gradientUnits="userSpaceOnUse">
			<stop  offset="0" style="stop-color:#F1A421"/>
			<stop  offset="1" style="stop-color:#F1582E"/>
		</radialGradient>
		<path class="st3" d="M2296.2,551.85c-106.43-16.74-216.87-67.3-307.18-121.81c-58.01-35.02-100.12-75.04-133.31-119.43
			c-0.04-0.04-0.07-0.11-0.11-0.15l-0.25-0.25c-0.93-1.22-1.91-2.42-3.03-3.53l-72.8-72.8l-1.32-1.32c0,0,0,0.01,0,0.01L1555.5,9.85
			c-7.1-7.1-16.58-10.35-25.87-9.78l-238.39-0.05c-0.69-0.02-1.38-0.02-2.07,0l-0.25,0l0,0.01c-8.28,0.31-16.47,3.66-22.74,10.05
			c-13.06,13.31-12.17,34.98,1.02,48.16l296.03,296.03c7.03,7.03,16.39,10.29,25.59,9.8h136.5c50.04,0,96.52,24.43,126.27,64.66
			c0.15,0.2,0.3,0.41,0.45,0.61c49.71,66.78,63.62,385.82,67.22,510.31c0.29,10.35,14.65,12.7,18.25,2.97
			c22.91-62.23,61.53-164.59,68.73-167.19c14.43-5.18,114.07,107.06,164.62,165.43c6.65,7.71,19.09,0.81,16.08-8.92
			c-27.46-89.73-89.95-293.41-109.99-355.6c-2.39-7.38,4.66-14.21,12.01-11.75c71.33,23.79,144.54,25.37,208.6,5.51
			C2307.03,567.15,2305.97,553.39,2296.2,551.85z"/>
		
			<radialGradient id="SVGID_00000112616553273512995770000018303206306517328796_" cx="1927.4308" cy="228.4678" r="703.8348" gradientUnits="userSpaceOnUse">
			<stop  offset="0" style="stop-color:#F1A421"/>
			<stop  offset="1" style="stop-color:#F1582E"/>
		</radialGradient>
		<path style="fill:url(#SVGID_00000112616553273512995770000018303206306517328796_);" d="M1990.1,408.73
			c13.2,5.8,27.98,7.22,42.19,4.77c36.12-6.22,62.88-33.79,79.13-65.17c9.84-19,16.26-39.48,21.74-60.23
			c7.93-4.81,15.17-10.7,21.31-17.73c18.45-21.15,27.84-58.38,15.36-83.53c-9.3,17.87-33.06,21.05-53.18,22.02
			c-30.36,1.47-60.71,2.94-91.06,4.41c-15.03,0.73-30.59,1.59-43.95,8.51c-13.36,6.92-23.9,21.7-20.98,36.46
			c0.1,0.5,0.25,0.97,0.38,1.45c-0.3,0.38-0.61,0.74-0.9,1.13c-12.59,16.97-14.46,39.48-13.99,60.6
			C1946.94,355.56,1954.24,392.99,1990.1,408.73z"/>
		
			<radialGradient id="SVGID_00000066509841440739554660000000721532500943593402_" cx="1046.7557" cy="60.0922" r="673.6356" gradientUnits="userSpaceOnUse">
			<stop  offset="0" style="stop-color:#F1A421"/>
			<stop  offset="1" style="stop-color:#F1582E"/>
		</radialGradient>
		<path style="fill:url(#SVGID_00000066509841440739554660000000721532500943593402_);" d="M1241.05,38.84
			c0-7.53,2.52-15.08,7.55-21.24l-174.27,174.27c-12.67,12.67-14.18,33.29-2.36,46.76c12.96,14.76,35.46,15.3,49.12,1.64
			l153.73-153.73l-23.92-23.92C1244.35,56.07,1241.05,47.45,1241.05,38.84z"/>
	</g>
	<g>
		
			<radialGradient id="SVGID_00000145057991201629671950000016916991811834670266_" cx="922.0969" cy="9.2711" r="1998.6636" gradientUnits="userSpaceOnUse">
			<stop  offset="0" style="stop-color:#ED1966"/>
			<stop  offset="0.2304" style="stop-color:#D41B5E"/>
			<stop  offset="0.4764" style="stop-color:#C11D57"/>
			<stop  offset="0.7299" style="stop-color:#B61E53"/>
			<stop  offset="1" style="stop-color:#B21E52"/>
		</radialGradient>
		<path style="fill:url(#SVGID_00000145057991201629671950000016916991811834670266_);" d="M733.84,300.65
			c13.14,13.14,34.45,13.14,47.58,0l153.73-153.73L911.24,123c-6.56-6.56-9.86-15.18-9.86-23.79c0-7.53,2.52-15.08,7.55-21.24
			L733.84,253.07C720.7,266.2,720.7,287.51,733.84,300.65z"/>
		
			<radialGradient id="SVGID_00000018952943597696707270000015922639191294929792_" cx="922.0969" cy="9.2711" r="1998.6636" gradientUnits="userSpaceOnUse">
			<stop  offset="0" style="stop-color:#ED1966"/>
			<stop  offset="0.2304" style="stop-color:#D41B5E"/>
			<stop  offset="0.4764" style="stop-color:#C11D57"/>
			<stop  offset="0.7299" style="stop-color:#B61E53"/>
			<stop  offset="1" style="stop-color:#B21E52"/>
		</radialGradient>
		<path style="fill:url(#SVGID_00000018952943597696707270000015922639191294929792_);" d="M926.73,70.22
			c6.25-6.25,14.34-9.52,22.52-9.82l0-0.01l0.25,0c0.69-0.02,1.38-0.02,2.07,0l238.39,0.05c9.29-0.57,18.77,2.68,25.87,9.78
			l240.27,240.27c13.14,13.14,13.14,34.44,0,47.58c-6.11,6.11-13.99,9.38-22,9.8l0,0h0c-1.2,0.06-2.39,0.06-3.59,0h-237.92l0,0
			c-9.2,0.49-18.56-2.78-25.59-9.8L926.73,117.8C913.59,104.66,913.59,83.36,926.73,70.22z"/>
	</g>
	<g>
		
			<linearGradient id="SVGID_00000054225490368715110500000003028113687224192159_" gradientUnits="userSpaceOnUse" x1="81.1477" y1="871.6251" x2="481.6158" y2="348.2411">
			<stop  offset="0" style="stop-color:#022753"/>
			<stop  offset="0.9948" style="stop-color:#0C4E88"/>
		</linearGradient>
		<path style="fill:url(#SVGID_00000054225490368715110500000003028113687224192159_);" d="M571.56,183.39
			c-6.57-6.57-9.84-15.2-9.84-23.79c0-7.56,2.5-15.09,7.53-21.26l-61.31,61.31l-87.56,87.56l-26.21,26.21
			c-2.35,2.35-4.3,4.99-5.76,7.78c-2.17,2.09-4.41,4.22-6.65,6.35c-2.31,2.17-6.09,1.73-7.78-0.95
			c-13.22-20.85-6.68-37.41-21.88-53.09c-16.45-16.92-41.34-25.63-65.57-27.02c-24.23-1.36-51.51,5.29-65.83,23.86
			c-35.43,46-31.9,184.04-8.08,163.45c1.95-1.73,3.67-2.35,5.21-2.35c5.03,0,6.42,7.2,1.95,9.55
			C153.1,476.4,82.83,500.85,4.52,509.81c-5.29,0.62-6.24,7.89-1.25,9.8c66.56,25.63,124.83,27.53,203.8-0.29
			c3.63-1.28,7.34,1.73,6.75,5.54c-0.59,3.74-1.36,8.63-2.31,14.5c-22.84,91.34-38.62,139-87.41,188.01
			c-2.46,2.5-1.8,6.72,1.36,8.22c5.69,2.68,11.42,5.29,17.18,7.78c2.53,1.1,3.74,3.97,2.72,6.54
			c-8.96,21.95-37.34,102.36-51.03,141.49c-1.84,5.14,4.63,9.1,8.41,5.18c27.24-28.2,82.57-86.42,112.53-124.38
			c1.25-1.58,3.3-2.24,5.25-1.73c30.47,8.19,61.68,13.91,93.14,17.07c2.06,0.22,3.74,1.58,4.33,3.56
			c9.84,33.3,38.48,115.06,52.32,154.2c1.84,5.14,9.33,4.22,9.84-1.21c3.82-40.14,11.31-121.8,12.08-149.3
			c0.07-2.65,2.18-4.74,4.82-4.85c9.26-0.4,18.52-1.03,27.74-1.91c2.9-0.26,4.99-2.97,4.55-5.84
			c-15.61-101.66-55.8-185.68-17.18-338.84c0.03-0.12,0.07-0.24,0.11-0.35c8.26-23.31,16.74-40.82,22.32-49.6
			c1.91-3.01,3.79-6.04,5.63-9.09c21.25-35.11,46.14-67.9,75.16-96.91l80.12-80.1L571.56,183.39z"/>
		
			<linearGradient id="SVGID_00000104670634078572802200000004962448183448799104_" gradientUnits="userSpaceOnUse" x1="244.1611" y1="996.355" x2="644.6292" y2="472.971">
			<stop  offset="0" style="stop-color:#022753"/>
			<stop  offset="0.9948" style="stop-color:#0C4E88"/>
		</linearGradient>
		<path style="fill:url(#SVGID_00000104670634078572802200000004962448183448799104_);" d="M1053.03,307.47L876.15,130.59
			c-7.1-7.1-16.58-10.35-25.87-9.78l-238.39-0.05c-0.69-0.02-1.38-0.02-2.07,0l-0.25,0l0,0.01c-8.28,0.31-16.47,3.66-22.74,10.05
			c-13.07,13.3-12.17,34.97,1.02,48.16l176.85,176.85c7.03,7.03,16.39,10.29,25.59,9.8h237.92c1.2,0.06,2.39,0.06,3.59,0
			c8.2-0.44,16.27-3.85,22.44-10.26C1067.1,342.04,1066.12,320.56,1053.03,307.47z"/>
		
			<linearGradient id="SVGID_00000116224890282579879460000003923552850799647660_" gradientUnits="userSpaceOnUse" x1="117.3674" y1="899.3387" x2="517.8354" y2="375.9547">
			<stop  offset="0" style="stop-color:#022753"/>
			<stop  offset="0.9948" style="stop-color:#0C4E88"/>
		</linearGradient>
		
			<rect x="563.61" y="273.87" style="fill:url(#SVGID_00000116224890282579879460000003923552850799647660_);" width="36.64" height="36.64"/>
		
			<linearGradient id="SVGID_00000176044600896858677970000017974124262788114364_" gradientUnits="userSpaceOnUse" x1="146.2935" y1="921.4715" x2="546.7615" y2="398.0875">
			<stop  offset="0" style="stop-color:#022753"/>
			<stop  offset="0.9948" style="stop-color:#0C4E88"/>
		</linearGradient>
		
			<rect x="609.47" y="273.87" style="fill:url(#SVGID_00000176044600896858677970000017974124262788114364_);" width="36.64" height="36.64"/>
		
			<linearGradient id="SVGID_00000075128250038638564590000015301590268559037858_" gradientUnits="userSpaceOnUse" x1="139.4998" y1="916.2733" x2="539.9679" y2="392.8893">
			<stop  offset="0" style="stop-color:#022753"/>
			<stop  offset="0.9948" style="stop-color:#0C4E88"/>
		</linearGradient>
		
			<rect x="563.61" y="319.73" style="fill:url(#SVGID_00000075128250038638564590000015301590268559037858_);" width="36.64" height="36.64"/>
		
			<linearGradient id="SVGID_00000090270341223858155400000009707664064975486106_" gradientUnits="userSpaceOnUse" x1="168.4259" y1="938.4062" x2="568.894" y2="415.0222">
			<stop  offset="0" style="stop-color:#022753"/>
			<stop  offset="0.9948" style="stop-color:#0C4E88"/>
		</linearGradient>
		
			<rect x="609.47" y="319.73" style="fill:url(#SVGID_00000090270341223858155400000009707664064975486106_);" width="36.64" height="36.64"/>
	</g>
	<g>
		<path class="st2" d="M546.43,704.7l0.45,0.46v21.89l26-21.89l0.91-0.46h11.86l0.46,0.46l-32.39,26.91l36.03,36.03l-0.45,0.46
			h-11.86l-0.91-0.46L546.88,738v30.1l-0.45,0.46h-8.21l-0.45-0.46v-62.94l0.45-0.46H546.43z"/>
		<path class="st2" d="M606.62,704.7l0.45,0.46v62.94l-0.45,0.46h-8.21l-0.45-0.46v-62.94l0.45-0.46H606.62z"/>
		<path class="st2" d="M630.79,704.7l0.91,0.46l37.4,48.81v-48.81l0.46-0.46h8.21l0.46,0.46v62.94l-0.46,0.46h-8.67l-0.91-0.46
			l-37.4-48.8v48.8l-0.45,0.46h-8.21l-0.45-0.46v-62.94l0.45-0.46H630.79z"/>
		<path class="st2" d="M714.71,704.7c19.61,0,33.75,14.14,33.75,31.93c0,17.79-14.14,31.93-33.75,31.93h-21.44l-0.45-0.46v-62.94
			l0.45-0.46H714.71z M701.94,759.44h12.77c13.68,0,23.26-10.03,23.26-22.8c0-12.77-9.58-22.81-23.26-22.81h-12.77V759.44z"/>
		<path class="st2" d="M799.08,704.7l0.46,0.46v8.21l-0.46,0.46h-29.65v15.05h22.35l0.46,0.46v8.21l-0.46,0.46h-22.35v21.44h32.39
			l0.45,0.46v8.21l-0.45,0.46h-41.05l-0.45-0.46v-62.94l0.45-0.46H799.08z"/>
		<path class="st2" d="M831.46,704.7c12.77,0,20.98,7.76,20.98,18.25c0,7.3-4.11,13.68-10.95,16.42l20.98,28.73l-0.46,0.46h-10.95
			l-0.46-0.46l-20.07-26.91h-8.21v26.91l-0.45,0.46h-8.21l-0.45-0.46v-62.94l0.45-0.46H831.46z M822.33,732.07h9.12
			c6.84,0,10.49-3.65,10.49-9.12c0-5.47-3.65-9.12-10.49-9.12h-9.12V732.07z"/>
		<path class="st2" d="M895.76,730.7l0.46,0.46v8.21l-0.46,0.46h-28.28l-0.46-0.46v-8.21l0.46-0.46H895.76z"/>
		<path class="st2" d="M939.54,704.7l0.45,0.46v33.3c0,14.14,8.67,21.89,19.16,21.89c10.49,0,19.16-7.76,19.16-21.89v-33.3
			l0.46-0.46h8.21l0.46,0.46v35.12c0,18.7-12.77,29.65-28.28,29.65s-28.28-10.95-28.28-29.65v-35.12l0.45-0.46H939.54z"/>
		<path class="st2" d="M1011.14,704.7l0.91,0.46l37.4,48.81v-48.81l0.46-0.46h8.21l0.46,0.46v62.94l-0.46,0.46h-8.67l-0.91-0.46
			l-37.4-48.8v48.8l-0.45,0.46h-8.21l-0.45-0.46v-62.94l0.45-0.46H1011.14z"/>
		<path class="st2" d="M1095.06,704.7c19.61,0,33.75,14.14,33.75,31.93c0,17.79-14.14,31.93-33.75,31.93h-21.44l-0.45-0.46v-62.94
			l0.45-0.46H1095.06z M1082.28,759.44h12.77c13.68,0,23.26-10.03,23.26-22.8c0-12.77-9.58-22.81-23.26-22.81h-12.77V759.44z"/>
		<path class="st2" d="M1187.63,704.7l0.46,0.46v46.52c0,10.95-6.84,18.24-17.79,18.24c-8.21,0-13.68-4.1-15.97-11.86l7.3-3.65h0.91
			c1.37,4.11,3.83,5.93,7.75,5.93c6.38,0,8.67-4.11,8.67-11.86v-43.33l0.46-0.46H1187.63z"/>
		<path class="st2" d="M1211.35,704.7l0.45,0.46v33.3c0,14.14,8.67,21.89,19.16,21.89s19.16-7.76,19.16-21.89v-33.3l0.46-0.46h8.21
			l0.46,0.46v35.12c0,18.7-12.77,29.65-28.28,29.65s-28.28-10.95-28.28-29.65v-35.12l0.45-0.46H1211.35z"/>
		<path class="st2" d="M1328.1,720.21c-5.93-5.47-14.59-7.3-22.35-7.3c-14.14,0-24.17,10.49-24.17,23.72
			c0,13.68,10.49,23.72,24.63,23.72c4.56,0,9.58-0.91,14.14-3.19v-15.51h-12.32l-0.46-0.46v-8.21l0.46-0.46h20.98l0.45,0.46v29.65
			c-6.84,5.02-15.05,7.3-23.26,7.3c-19.61,0-35.12-14.59-35.12-33.3c0-18.25,15.05-33.3,34.67-33.3c8.67,0,16.88,1.37,22.81,5.93
			v10.49L1328.1,720.21z"/>
		<path class="st2" d="M1381.91,704.7l0.46,0.46v8.21l-0.46,0.46h-29.65v15.05h22.35l0.46,0.46v8.21l-0.46,0.46h-22.35v21.44h32.39
			l0.45,0.46v8.21l-0.45,0.46h-41.05l-0.45-0.46v-62.94l0.45-0.46H1381.91z"/>
		<path class="st2" d="M1405.17,704.7l0.91,0.46l37.4,48.81v-48.81l0.46-0.46h8.21l0.46,0.46v62.94l-0.46,0.46h-8.67l-0.91-0.46
			l-37.4-48.8v48.8l-0.45,0.46h-8.21l-0.45-0.46v-62.94l0.45-0.46H1405.17z"/>
		<path class="st2" d="M1489.08,704.7c19.61,0,33.75,14.14,33.75,31.93c0,17.79-14.14,31.93-33.75,31.93h-21.44l-0.45-0.46v-62.94
			l0.45-0.46H1489.08z M1476.31,759.44h12.77c13.68,0,23.26-10.03,23.26-22.8c0-12.77-9.58-22.81-23.26-22.81h-12.77V759.44z"/>
		<path class="st2" d="M1543.35,704.7l0.45,0.46v23.72h34.67v-23.72l0.46-0.46h8.21l0.46,0.46v62.94l-0.46,0.46h-8.21l-0.46-0.46
			V738h-34.67v30.1l-0.45,0.46h-8.21l-0.45-0.46v-62.94l0.45-0.46H1543.35z"/>
		<path class="st2" d="M1610.84,704.7l0.45,0.46v62.94l-0.45,0.46h-8.21l-0.45-0.46v-62.94l0.45-0.46H1610.84z"/>
		<path class="st2" d="M1634.65,704.7l0.36,0.36v54.37h29.74l0.36,0.46v8.3l-0.36,0.36h-38.5l-0.36-0.36v-63.13l0.36-0.36H1634.65z"
			/>
		<path class="st2" d="M1713.92,704.7l0.46,0.46v8.21l-0.46,0.46h-29.65v15.05h22.35l0.46,0.46v8.21l-0.46,0.46h-22.35v30.1
			l-0.45,0.46h-8.21l-0.45-0.46v-62.94l0.45-0.46H1713.92z"/>
		<path class="st2" d="M1763.17,704.7l0.46,0.46v8.21l-0.46,0.46h-29.65v15.05h22.35l0.46,0.46v8.21l-0.46,0.46h-22.35v21.44h32.39
			l0.45,0.46v8.21l-0.45,0.46h-41.05l-0.45-0.46v-62.94l0.45-0.46H1763.17z"/>
	</g>
</g>
</svg>
